<svg version="1.1" id="Layer_1" xmlns="http://www.w3.org/2000/svg" xmlns:xlink="http://www.w3.org/1999/xlink" x="0px" y="0px"
	 width="100%" viewBox="0 0 50 50" enable-background="new 0 0 50 50" xml:space="preserve">
<path fill="#000000" opacity="1.000000" stroke="none" 
	d="
M30.000561,51.000000 
	C20.833736,51.000000 12.165387,50.907166 3.501632,51.065586 
	C1.348854,51.104950 0.918640,50.650204 0.935997,48.499928 
	C1.057067,33.500927 1.056900,18.500034 0.936132,3.501030 
	C0.918834,1.352758 1.349562,0.918627 3.499993,0.935988 
	C18.498989,1.057079 33.499886,1.056884 48.498886,0.936146 
	C50.646965,0.918854 51.081387,1.349325 51.064022,3.499909 
	C50.942909,18.498905 50.943134,33.499802 51.063843,48.498802 
	C51.081127,50.646690 50.658649,51.134594 48.498596,51.066002 
	C42.504654,50.875660 36.500721,51.000000 30.000561,51.000000 
z"/>
<path fill="#FDECDD" opacity="1.000000" stroke="none" 
	d="
M29.536888,17.266277 
	C30.148331,17.479103 30.845196,17.370407 32.082333,17.122469 
	C33.120296,18.441368 32.730438,19.860163 32.281803,21.633297 
	C30.879265,24.148895 28.741142,24.229620 26.208504,24.342319 
	C24.163351,24.358351 22.531826,24.313938 20.896494,22.942635 
	C20.383331,21.781263 20.744184,21.094400 21.147449,20.042637 
	C21.581799,19.135487 22.044680,18.609945 22.699995,17.949833 
	C23.906895,17.446962 25.039829,17.447224 26.284218,16.738474 
	C27.051508,16.377897 27.267422,17.839008 28.120155,16.681406 
	C28.868439,16.521713 29.268019,16.665508 29.536888,17.266277 
z"/>
<path fill="#919230" opacity="1.000000" stroke="none" 
	d="
M11.262281,30.042648 
	C5.697438,26.916483 6.968198,22.154388 8.578419,17.165913 
	C11.012388,16.432213 11.620314,18.502930 13.195583,19.595016 
	C13.794292,20.519629 13.957999,21.220947 13.984238,22.313602 
	C13.918868,22.902695 13.869130,23.133846 13.688713,23.690948 
	C12.945765,24.967232 12.259805,25.886837 12.237304,27.445309 
	C12.102849,28.503939 11.900229,29.180456 11.262281,30.042648 
z"/>
<path fill="#96902C" opacity="1.000000" stroke="none" 
	d="
M13.415716,19.960199 
	C11.073020,20.088745 10.360502,18.574650 9.176331,17.129259 
	C9.190859,15.015624 9.769176,12.890228 11.620443,12.293666 
	C13.580664,11.661996 13.788908,14.137829 14.926283,15.536618 
	C16.011040,17.616182 15.850688,19.048748 13.415716,19.960199 
z"/>
<path fill="#8B9235" opacity="1.000000" stroke="none" 
	d="
M13.000212,20.375389 
	C13.789024,18.921642 15.294827,18.263317 15.038324,16.203821 
	C16.787100,16.572685 17.718966,18.244068 18.156963,19.709070 
	C18.777365,21.784166 19.288990,18.977909 19.894905,19.904312 
	C20.285969,20.154228 20.398849,20.363972 20.520451,20.930866 
	C20.480932,21.999563 20.481813,22.718513 20.032066,23.705620 
	C19.555786,24.385487 19.220488,24.716995 18.535294,25.170403 
	C18.006323,25.384930 17.781965,25.431108 17.220030,25.437576 
	C15.667911,24.884373 14.482206,24.320261 13.234981,23.228207 
	C13.000782,22.252342 13.000640,21.501560 13.000212,20.375389 
z"/>
<path fill="#AC4312" opacity="1.000000" stroke="none" 
	d="
M32.229866,21.266129 
	C31.931704,19.837656 29.181374,18.649139 32.484921,17.369190 
	C36.609806,16.508657 37.478481,18.720938 37.050995,23.140377 
	C36.604435,24.348574 36.114254,24.387901 35.259399,24.192738 
	C33.744083,23.568907 32.801655,22.819387 32.229866,21.266129 
z"/>
<path fill="#86843C" opacity="1.000000" stroke="none" 
	d="
M38.168724,41.849495 
	C36.939503,42.097549 35.951180,42.110058 34.599792,42.044468 
	C33.137253,42.774345 31.864828,42.388988 30.293896,42.481186 
	C29.682850,42.441257 29.439999,42.404598 28.919918,42.125042 
	C28.571375,41.647038 28.500061,41.411938 28.449368,40.808701 
	C28.625319,39.972569 28.848577,39.540485 29.417282,38.902199 
	C29.893946,38.537407 30.105185,38.421127 30.657864,38.194611 
	C31.232895,38.043537 31.466488,38.002697 32.052887,37.940781 
	C33.108540,37.927685 33.793758,38.043682 34.775597,38.392235 
	C35.990852,39.182541 36.891922,39.838814 38.047348,40.705612 
	C38.320011,41.173767 38.364815,41.393860 38.168724,41.849495 
z"/>
<path fill="#DFD8D8" opacity="1.000000" stroke="none" 
	d="
M41.290581,28.856840 
	C41.052929,30.215643 41.053215,31.249001 40.967094,32.660156 
	C40.439873,33.600121 40.504082,34.325108 39.971676,35.139435 
	C39.446518,35.305450 39.213303,35.283897 38.695190,35.051170 
	C36.998363,33.054138 36.685638,30.924414 36.560463,28.389803 
	C36.827789,27.576818 37.133083,27.200102 37.861473,26.755987 
	C38.446636,26.670753 38.687580,26.715305 39.296021,26.765839 
	C39.663513,26.771820 39.794407,26.771645 39.840031,26.818569 
	C40.121693,27.158228 40.381729,27.427580 40.915451,27.806671 
	C41.161457,27.943384 41.067993,27.959480 41.071388,27.912182 
	C41.226032,28.087055 41.377277,28.309227 41.290581,28.856840 
z"/>
<path fill="#898E46" opacity="1.000000" stroke="none" 
	d="
M20.179279,42.195778 
	C19.873711,41.996132 19.452253,42.054588 19.247198,41.997898 
	C18.878859,41.761749 18.715574,41.582294 18.422518,41.061287 
	C18.249886,40.225422 18.316938,39.745140 18.692156,38.974670 
	C19.319216,38.389790 19.767050,38.183434 20.612164,37.974121 
	C21.726194,37.831532 22.470087,37.869831 23.575489,38.069679 
	C24.165178,38.266911 24.390936,38.374832 24.892839,38.737389 
	C25.435610,39.431580 25.553360,39.907894 25.398750,40.773689 
	C24.773348,41.720646 24.078018,41.973705 23.021866,42.319923 
	C21.942911,42.492935 21.212864,42.499149 20.179279,42.195778 
z"/>
<path fill="#FFFDFA" opacity="1.000000" stroke="none" 
	d="
M12.512977,36.093971 
	C12.394051,34.511280 12.405113,33.220554 12.453861,31.544403 
	C12.652385,31.040955 12.813222,30.922935 13.272839,30.843882 
	C13.960524,31.009226 14.332481,31.174423 14.943750,31.556620 
	C15.322078,31.912395 15.447221,32.082939 15.695568,32.548653 
	C16.055023,33.683537 16.077547,34.545097 16.066244,35.736534 
	C15.995115,36.501694 15.887050,36.926128 15.567405,37.622826 
	C15.223632,38.035465 15.047589,38.164967 14.545055,38.314171 
	C13.282763,38.016682 13.042287,37.137070 12.512977,36.093971 
z"/>
<path fill="#FCFFE5" opacity="1.000000" stroke="none" 
	d="
M20.079123,42.388786 
	C20.658388,41.946373 21.443068,41.896614 22.617378,41.793045 
	C24.770319,41.633072 26.443871,40.495293 28.680563,41.496567 
	C30.513611,41.737743 31.950787,41.762398 33.812347,41.876717 
	C29.695377,44.110424 24.944048,42.660072 20.079123,42.388786 
z"/>
<path fill="#8C8D4B" opacity="1.000000" stroke="none" 
	d="
M38.272823,42.130989 
	C37.927830,42.085041 37.849289,41.605350 37.832947,41.362862 
	C37.826130,40.745571 37.901321,40.383804 38.158020,39.782154 
	C38.391434,39.377563 38.499199,39.223946 38.806717,38.871078 
	C39.311718,38.449436 39.638191,38.265224 40.544720,38.074402 
	C42.728539,37.580288 43.691921,38.601448 43.871380,39.868668 
	C44.159672,41.904430 42.428856,40.764961 41.563393,41.035110 
	C40.560455,41.348179 39.597900,41.790642 38.272823,42.130989 
z"/>
<path fill="#FBF1DC" opacity="1.000000" stroke="none" 
	d="
M38.223259,26.647509 
	C37.865276,27.289654 37.657867,27.547621 37.218147,27.901951 
	C36.814285,28.131247 36.642731,28.264185 36.148972,28.341751 
	C35.240463,27.948057 34.823727,27.451485 34.380802,26.559759 
	C34.217175,26.037191 34.174419,25.821409 34.124260,25.275631 
	C34.174416,24.506845 34.302517,24.090515 34.754494,23.478317 
	C35.468681,23.488066 35.941746,23.720034 36.674744,24.017767 
	C37.310570,24.126242 37.599739,24.302622 38.049614,24.695274 
	C38.312393,24.754196 38.449368,25.100658 38.374138,25.271069 
	C38.323879,25.715429 38.348858,25.989382 38.223259,26.647509 
z"/>
<path fill="#726816" opacity="1.000000" stroke="none" 
	d="
M13.366862,31.399134 
	C13.091146,31.413290 12.736370,31.415747 12.613958,31.287361 
	C12.094323,31.051849 11.697100,30.944723 11.147861,30.561249 
	C11.009893,29.463652 11.023939,28.642403 11.023617,27.412308 
	C11.283073,26.683937 11.629079,26.486155 12.344177,26.413773 
	C13.039284,26.563265 13.391436,26.756973 13.884465,27.259453 
	C14.146804,27.668720 14.224738,27.846125 14.330891,28.305986 
	C14.258355,28.969341 14.026505,29.194304 13.821024,29.389782 
	C14.117033,29.724691 14.211185,29.880358 14.318333,30.310516 
	C14.216775,30.950703 13.981769,31.212690 13.366862,31.399134 
z"/>
<path fill="#8E5632" opacity="1.000000" stroke="none" 
	d="
M27.258698,17.346050 
	C25.750811,17.535275 25.028339,19.432905 23.135643,18.169001 
	C25.048565,16.396999 27.064371,13.870565 29.620243,17.264877 
	C29.120716,17.555979 28.789970,17.524158 28.206635,17.436119 
	C27.954046,17.379900 27.489355,17.374159 27.258698,17.346050 
z"/>
<path fill="#FFFDFA" opacity="1.000000" stroke="none" 
	d="
M39.720825,35.343636 
	C40.093903,34.463398 40.248241,33.913166 40.641632,33.200447 
	C40.921959,34.423756 40.963226,35.809559 41.052261,37.609306 
	C41.100021,38.023258 41.074768,37.928234 41.025761,37.924355 
	C40.763683,38.080997 40.550617,38.241520 40.003151,38.182610 
	C39.255554,37.226032 39.201939,36.462715 39.720825,35.343636 
z"/>
<path fill="#8E9245" opacity="1.000000" stroke="none" 
	d="
M15.179186,41.213928 
	C14.045167,40.851200 13.208438,40.673466 12.227846,40.195206 
	C12.218678,39.714008 12.353371,39.533329 12.575644,39.025475 
	C13.287353,38.282310 13.974120,38.500500 14.982964,38.488243 
	C15.545556,38.544037 15.764777,38.614670 16.205206,38.952408 
	C16.574024,39.668137 16.593834,40.124142 16.324211,40.885376 
	C15.920883,41.255875 15.698679,41.327400 15.179186,41.213928 
z"/>
<path fill="#929091" opacity="1.000000" stroke="none" 
	d="
M12.207586,36.134739 
	C13.362974,35.734978 13.606554,36.590015 14.182964,37.429302 
	C14.163456,37.919624 14.040939,38.137932 13.547010,38.409912 
	C12.926002,38.447174 12.676404,38.430763 12.129673,38.185249 
	C11.899087,37.459919 11.965636,36.963699 12.207586,36.134739 
z"/>
<path fill="#A39E6B" opacity="1.000000" stroke="none" 
	d="
M15.032330,41.390015 
	C15.077876,40.990681 15.273856,40.952427 15.764189,40.858803 
	C16.751236,40.303677 17.507132,40.203167 18.661396,40.646793 
	C19.024864,41.029564 19.044292,41.211380 19.052931,41.667202 
	C17.755682,41.877842 16.469221,41.814472 15.032330,41.390015 
z"/>
<path fill="#995325" opacity="1.000000" stroke="none" 
	d="
M20.307514,22.605019 
	C20.011251,22.226995 20.016382,21.769192 20.097300,20.627937 
	C20.408350,19.846087 20.636894,19.735470 20.988819,19.636831 
	C22.119526,20.190447 21.669537,20.763050 21.091324,21.694111 
	C20.878857,22.209118 20.743881,22.367176 20.307514,22.605019 
z"/>
<path fill="#8E9245" opacity="1.000000" stroke="none" 
	d="
M11.438271,37.957981 
	C12.024588,37.968311 12.216637,37.980480 12.696309,38.016983 
	C13.154417,38.199158 13.324902,38.357002 13.246425,38.758709 
	C12.858682,39.158657 12.719901,39.314735 12.332552,39.682747 
	C11.098045,40.134293 10.150077,40.064892 9.873543,38.931065 
	C9.683601,38.152275 10.444686,38.043770 11.438271,37.957981 
z"/>
<path fill="#FFFDFA" opacity="1.000000" stroke="none" 
	d="
M41.385841,29.096210 
	C41.038044,28.962738 41.023449,28.743195 41.041817,28.194267 
	C41.665638,28.058933 42.256489,28.252983 42.847340,28.447031 
	C42.471237,28.634733 42.095135,28.822437 41.385841,29.096210 
z"/>
<path fill="#E8E3D6" opacity="1.000000" stroke="none" 
	d="
M38.471985,26.976454 
	C38.090099,26.763664 38.107510,26.495644 38.211914,25.834551 
	C38.692360,25.659121 39.085815,25.876760 39.571392,26.433111 
	C39.399437,26.821619 39.135361,26.871420 38.471985,26.976454 
z"/>
<path fill="#FFFDFA" opacity="1.000000" stroke="none" 
	d="
M41.042953,27.644732 
	C40.842991,27.744423 40.524529,27.545460 40.045860,27.105995 
	C40.231918,27.025690 40.578182,27.185883 41.042953,27.644732 
z"/>
<path fill="#974C33" opacity="1.000000" stroke="none" 
	d="
M38.378067,24.535625 
	C37.941071,24.710419 37.569748,24.666643 37.066551,24.353199 
	C36.934681,24.083532 36.949326,23.969934 36.992165,23.931923 
	C37.223286,23.829327 37.411572,23.764740 37.858727,23.848938 
	C38.117596,23.997725 38.443741,24.317057 38.378067,24.535625 
z"/>
<path fill="#9E4E25" opacity="1.000000" stroke="none" 
	d="
M38.009575,23.748854 
	C37.936344,23.988979 37.755089,23.980232 37.304413,23.932699 
	C37.035000,23.893913 36.999367,23.397341 37.011299,23.147964 
	C37.316006,23.099052 37.608780,23.299517 38.009575,23.748854 
z"/>
<path fill="#F7EFE0" opacity="1.000000" stroke="none" 
	d="
M19.897125,22.874001 
	C20.172676,22.576880 20.339230,22.468958 20.759808,22.206047 
	C22.171194,23.473608 23.788229,22.850649 25.616453,22.999216 
	C26.533928,23.658100 27.338871,23.967077 28.130501,24.781101 
	C28.623005,26.561722 27.619991,27.874561 27.614849,29.671028 
	C27.551365,30.212034 27.508081,30.428223 27.303471,30.937702 
	C26.957996,31.360312 26.773849,31.489626 26.272137,31.734198 
	C25.732931,31.884890 25.511293,31.920324 24.954069,31.953552 
	C24.178459,31.888781 23.751976,31.776377 23.074219,31.428867 
	C22.257029,30.406023 21.664223,29.663025 20.174530,30.279041 
	C19.437933,30.060104 19.081217,29.790247 18.574940,29.167345 
	C17.995461,27.961920 17.929497,27.018974 18.211681,25.710842 
	C18.415106,25.141792 18.496691,24.914352 18.792746,24.394730 
	C19.267521,23.756100 19.527826,23.409651 19.897125,22.874001 
z"/>
<path fill="#F6EFDC" opacity="1.000000" stroke="none" 
	d="
M28.237206,25.246201 
	C27.097668,24.925714 26.303724,24.687151 26.043041,23.320202 
	C27.998659,22.917326 30.207405,23.533512 31.875633,21.110659 
	C33.000465,21.521519 33.810368,22.140900 34.807945,23.008188 
	C34.996601,23.644983 34.997581,24.033871 34.997711,24.714436 
	C34.708210,25.345028 34.462002,25.712738 33.958870,26.269442 
	C33.444298,26.465946 33.222336,26.497673 32.665092,26.508461 
	C31.025082,26.224463 29.655615,26.210577 28.237206,25.246201 
z"/>
<path fill="#FEEAD0" opacity="1.000000" stroke="none" 
	d="
M27.116325,17.438066 
	C27.188190,17.240961 27.348341,17.163984 27.731270,17.233452 
	C27.954046,17.379900 27.612703,17.643681 27.612703,17.643681 
	C27.612703,17.643681 27.204607,17.558193 27.116325,17.438066 
z"/>
<path fill="#A4812C" opacity="1.000000" stroke="none" 
	d="
M12.996399,23.263027 
	C14.482572,22.943756 15.895565,23.064075 16.991596,24.777615 
	C17.157440,26.122286 16.480423,26.566322 15.201919,26.872650 
	C13.634994,26.609150 12.599862,26.215942 12.769278,24.409458 
	C12.980867,23.869349 12.986371,23.696138 12.996399,23.263027 
z"/>
<path fill="#866C26" opacity="1.000000" stroke="none" 
	d="
M12.632322,24.080879 
	C13.131516,25.272160 13.863547,25.935568 15.443087,26.255386 
	C15.836417,26.358332 15.617905,26.794817 15.510511,27.017447 
	C15.403118,27.240076 14.973070,27.493437 14.726059,27.538797 
	C14.314284,27.553097 14.149522,27.522034 13.764729,27.369162 
	C12.982518,27.178181 12.420337,27.109011 11.433702,27.021650 
	C11.045979,25.868980 10.790303,24.604733 12.632322,24.080879 
z"/>
<path fill="#FBEFE1" opacity="1.000000" stroke="none" 
	d="
M15.238964,27.349083 
	C15.661944,27.219500 15.733456,27.055939 15.820692,26.625355 
	C16.206753,26.077175 16.577087,25.796019 17.055176,25.303848 
	C17.162928,25.092831 17.575214,25.030357 17.781290,24.998671 
	C18.162327,24.849453 18.337288,24.731924 18.752068,24.820408 
	C19.009739,26.095127 19.027590,27.163834 19.087149,28.631199 
	C19.398598,29.998209 19.169180,30.885944 18.459446,32.004646 
	C17.819576,32.534275 17.375923,32.695492 16.544239,32.752556 
	C15.967960,32.642452 15.748129,32.552200 15.257589,32.230057 
	C14.986881,31.998158 14.968456,32.013943 14.956845,32.010391 
	C14.628819,31.642559 14.477647,31.216192 14.471732,30.385746 
	C14.454075,29.566217 14.459558,29.097906 14.512245,28.277832 
	C14.651003,27.722208 14.769249,27.518656 15.238964,27.349083 
z"/>
<path fill="#F9EED2" opacity="1.000000" stroke="none" 
	d="
M19.001091,24.795540 
	C18.824198,25.019293 18.656507,25.012169 18.238091,24.986015 
	C18.039478,24.619471 18.222105,24.366037 18.771229,24.154615 
	C19.007214,24.102547 19.010290,24.564661 19.001091,24.795540 
z"/>
<path fill="#F9EEDF" opacity="1.000000" stroke="none" 
	d="
M36.013641,28.046862 
	C36.297058,27.992342 36.641640,27.995228 36.813736,27.996769 
	C37.629082,30.088030 38.272327,32.177750 38.957916,34.635159 
	C39.569092,35.449497 39.461525,36.089272 39.475449,37.001312 
	C39.430042,37.513157 39.391834,37.715992 39.156940,38.158394 
	C38.467209,38.778446 37.967106,39.147945 37.098846,39.506821 
	C36.388695,39.678020 35.977028,39.665855 35.293854,39.414726 
	C34.264141,39.165241 33.509773,39.060501 32.378380,38.891518 
	C31.559196,38.650295 31.138828,38.431030 30.531715,37.884201 
	C29.679718,36.037025 29.856829,34.345631 29.499460,32.387619 
	C29.505264,31.807901 29.538715,31.578222 29.742363,31.047731 
	C30.445990,30.312822 31.072830,30.097906 32.042728,29.922361 
	C33.109844,29.785648 33.891125,29.780161 34.753212,29.129021 
	C35.180603,28.625040 35.445621,28.353743 36.013641,28.046862 
z"/>
<path fill="#AA4C0B" opacity="1.000000" stroke="none" 
	d="
M30.265369,38.527855 
	C29.881802,39.094624 29.678738,39.381393 28.960747,39.835125 
	C27.848673,40.019886 27.271116,39.907703 26.426445,39.618225 
	C26.002462,39.360489 25.854074,39.223778 25.627050,38.792931 
	C25.609678,38.304115 25.670944,38.109425 25.946850,37.695293 
	C27.027937,36.930313 27.913914,36.415619 29.061787,35.733620 
	C29.579897,35.673672 29.792934,35.712833 30.205017,36.011536 
	C30.498537,36.928299 30.489124,37.587715 30.265369,38.527855 
z"/>
<path fill="#7E8039" opacity="1.000000" stroke="none" 
	d="
M35.083511,39.578697 
	C35.458813,39.172726 35.899117,39.075470 36.672676,38.913349 
	C37.168144,38.764046 37.330353,38.679604 37.760571,38.653603 
	C38.335617,38.922733 38.561153,39.198044 38.846031,39.773449 
	C38.766674,40.277569 38.533062,40.556835 38.058025,40.978233 
	C36.854931,40.865856 35.628525,41.184231 35.083511,39.578697 
z"/>
<path fill="#FECBAC" opacity="1.000000" stroke="none" 
	d="
M30.324627,38.854198 
	C30.022474,38.097919 29.960081,37.387985 29.797108,36.335518 
	C28.946329,34.923470 28.925169,33.805721 29.784313,32.334282 
	C31.649023,33.510654 30.742876,35.449394 31.052338,37.568977 
	C31.177198,38.113319 31.277605,38.260807 31.212791,38.618843 
	C31.047571,38.829384 30.564388,38.900539 30.324627,38.854198 
z"/>
<path fill="#9B9B65" opacity="1.000000" stroke="none" 
	d="
M29.075695,41.513474 
	C27.337078,41.786175 25.597721,41.859264 23.432690,41.835793 
	C23.490530,41.492691 23.974047,41.246155 24.738323,40.977928 
	C26.013212,40.165318 27.093870,39.940754 28.659664,40.686920 
	C29.031643,40.916973 29.074957,41.313854 29.075695,41.513474 
z"/>
<path fill="#988D3B" opacity="1.000000" stroke="none" 
	d="
M29.026918,40.675591 
	C27.960941,40.939754 26.890242,40.962532 25.419312,40.970772 
	C24.992353,40.490868 24.965624,40.025497 25.454273,39.291092 
	C25.969650,39.022060 25.999580,39.018898 25.991352,39.031960 
	C26.690374,39.717693 27.612860,39.427811 28.723923,39.735619 
	C29.014254,39.878258 29.045517,39.911366 29.036739,39.931366 
	C29.027962,39.951366 29.022194,40.434200 29.026918,40.675591 
z"/>
<path fill="#ECE3C6" opacity="1.000000" stroke="none" 
	d="
M31.286163,38.895142 
	C31.047571,38.829384 31.045467,38.397297 31.061131,38.181564 
	C31.351715,38.071110 31.586596,38.234089 31.891396,38.641029 
	C32.001358,38.827278 31.524755,38.960896 31.286163,38.895142 
z"/>
<path fill="#DED5CB" opacity="1.000000" stroke="none" 
	d="
M39.485825,38.289616 
	C39.172966,37.411549 39.083767,36.611168 38.997414,35.406815 
	C39.000259,35.002850 39.470676,35.004234 39.705116,35.008934 
	C39.961243,35.758667 39.982922,36.503708 40.003136,37.621696 
	C40.001663,37.994652 39.709484,38.367298 39.485825,38.289616 
z"/>
<path fill="#82863A" opacity="1.000000" stroke="none" 
	d="
M19.000877,40.584969 
	C18.267527,40.858204 17.529617,40.868660 16.425125,40.841270 
	C16.043575,40.397911 16.028608,39.992397 16.015427,39.281288 
	C16.739523,38.337673 17.546345,38.272633 18.697960,38.944946 
	C18.986511,39.619225 18.991415,39.970711 19.000877,40.584969 
z"/>
<path fill="#EBE4BC" opacity="1.000000" stroke="none" 
	d="
M19.313274,39.174934 
	C18.240398,39.198200 17.499186,39.128662 16.387592,39.017410 
	C16.017210,38.975697 16.059612,38.990463 16.066402,38.969006 
	C15.908588,38.800827 15.743984,38.654102 15.676132,38.191212 
	C16.096992,37.573845 16.465231,37.345879 17.202225,37.135155 
	C18.158707,36.992241 18.797976,37.013519 19.747128,37.133560 
	C20.253256,37.261269 20.449198,37.334381 20.893806,37.596252 
	C21.216986,37.978409 21.291498,38.171799 21.185715,38.618439 
	C20.551922,38.941830 20.098431,39.011978 19.313274,39.174934 
z"/>
<path fill="#E5E6C0" opacity="1.000000" stroke="none" 
	d="
M21.376183,38.938686 
	C21.005415,38.871685 20.999842,38.442154 20.997837,38.227379 
	C21.531830,37.403355 22.222424,37.237320 23.346535,37.439407 
	C23.864231,37.744373 24.033180,37.924236 24.094265,38.458183 
	C23.239916,38.876743 22.493433,38.941216 21.376183,38.938686 
z"/>
<path fill="#EECCB3" opacity="1.000000" stroke="none" 
	d="
M24.204517,38.852509 
	C23.986401,38.812271 23.981659,38.385586 24.578501,38.145645 
	C25.250893,38.109215 25.326443,38.312721 25.169149,38.743858 
	C24.936306,38.971481 24.942839,38.891003 24.904064,38.877480 
	C24.865290,38.863956 24.422632,38.892746 24.204517,38.852509 
z"/>
<path fill="#F8EEE7" opacity="1.000000" stroke="none" 
	d="
M18.273790,37.681812 
	C17.546900,37.980221 17.102339,37.985851 16.324369,37.996876 
	C15.712419,38.120056 15.433875,38.237835 15.070639,37.909958 
	C14.947412,37.145702 14.941271,36.826481 14.977833,36.267113 
	C15.927630,34.996487 15.319595,33.703678 15.805494,32.274734 
	C16.471668,31.995184 16.907436,31.997793 17.670033,32.001282 
	C20.640049,33.542725 20.157801,35.407772 18.273790,37.681812 
z"/>
<path fill="#E0DBD2" opacity="1.000000" stroke="none" 
	d="
M15.773606,31.986401 
	C15.871232,33.182339 15.706562,34.372105 15.265019,35.794731 
	C14.990091,34.952778 14.992037,33.877960 14.990432,32.400650 
	C15.161691,31.992182 15.336501,31.986204 15.773606,31.986401 
z"/>
<path fill="#FBF6F0" opacity="1.000000" stroke="none" 
	d="
M14.785888,29.822189 
	C15.003116,30.514050 14.989579,30.940573 14.960638,31.686966 
	C14.454325,31.918865 13.963416,31.830891 13.281826,31.578102 
	C13.332705,31.110186 13.574262,30.807079 13.889437,30.220203 
	C14.160411,29.809908 14.357766,29.683378 14.785888,29.822189 
z"/>
<path fill="#8C8A5A" opacity="1.000000" stroke="none" 
	d="
M14.817657,37.543358 
	C15.152287,37.556152 15.318629,37.648003 15.737967,37.871063 
	C15.990962,38.002274 15.999004,38.477985 16.036098,38.712769 
	C15.304144,38.964645 14.535094,38.981747 13.381754,39.000710 
	C12.997463,39.002575 12.989052,38.521454 12.986492,38.281387 
	C13.203755,37.995697 13.423577,37.950073 13.964687,37.802883 
	C14.285974,37.701317 14.649370,37.622414 14.817657,37.543358 
z"/>
<path fill="#7D7B4B" opacity="1.000000" stroke="none" 
	d="
M39.251175,38.195175 
	C39.262165,38.211933 39.663754,38.211658 39.832710,38.103157 
	C40.001663,37.994652 40.496117,38.054550 40.736435,37.987511 
	C40.569077,38.255886 40.161396,38.591297 39.478600,38.546921 
	C39.203480,38.167130 39.240181,38.178421 39.251175,38.195175 
z"/>
<path fill="#95964B" opacity="1.000000" stroke="none" 
	d="
M39.033981,39.752701 
	C38.702576,39.936619 38.443039,39.801571 38.087738,39.416538 
	C38.096260,39.012909 38.238724,38.785900 38.711227,38.788422 
	C39.041267,39.017960 39.127110,38.995831 39.168564,39.014000 
	C39.210018,39.032166 39.067677,39.507099 39.033981,39.752701 
z"/>
<path fill="#8E948E" opacity="1.000000" stroke="none" 
	d="
M36.160004,27.718136 
	C36.238129,28.437687 36.179199,28.883032 36.056320,29.660099 
	C35.316452,30.411371 34.660229,30.079557 33.668941,29.813389 
	C33.151093,29.542137 32.963284,29.397060 32.593277,28.944233 
	C32.191639,27.924404 32.220078,27.225637 32.772995,26.283743 
	C33.198418,25.976805 33.374390,25.927759 33.809677,25.790180 
	C34.241322,25.678259 34.413647,25.654867 34.807320,25.769491 
	C35.360096,26.419647 35.691521,26.931789 36.160004,27.718136 
z"/>
<path fill="#FAECE5" opacity="1.000000" stroke="none" 
	d="
M35.018631,25.682232 
	C35.028675,25.907505 34.536182,25.863440 34.302589,25.782543 
	C34.199303,25.461765 34.384533,25.276918 34.810776,25.076612 
	C34.996861,25.006117 35.008583,25.456957 35.018631,25.682232 
z"/>
<path fill="#505326" opacity="1.000000" stroke="none" 
	d="
M15.118375,29.699383 
	C14.840417,30.067453 14.664180,30.047377 14.225499,29.981869 
	C13.963055,29.936436 13.976873,29.972908 13.982740,29.962084 
	C13.885272,29.730593 13.781936,29.509924 13.849938,28.966408 
	C13.909761,28.383579 13.798246,28.123604 13.458709,27.505775 
	C13.406241,27.239763 13.581796,27.331602 14.042271,27.507254 
	C14.523521,27.617298 14.719852,27.643532 15.210007,27.713848 
	C15.409252,28.275702 15.314674,28.793470 15.118375,29.699383 
z"/>
<path fill="#7D7B4B" opacity="1.000000" stroke="none" 
	d="
M13.849409,28.803215 
	C14.038678,28.862097 14.056079,29.080637 14.031043,29.625217 
	C13.804154,29.749979 13.595770,29.563793 13.452456,29.336567 
	C13.417603,29.281305 13.596779,29.091057 13.849409,28.803215 
z"/>
<path fill="#FBEFE1" opacity="1.000000" stroke="none" 
	d="
M13.477053,27.332697 
	C13.544700,27.247351 13.495430,27.123426 13.448736,27.075825 
	C13.651301,27.129143 13.900559,27.230064 13.759443,27.229416 
	C13.369070,27.127848 13.300479,27.141659 13.265583,27.144791 
	C13.230686,27.147924 13.409407,27.418043 13.477053,27.332697 
z"/>
<path fill="#FAECE5" opacity="1.000000" stroke="none" 
	d="
M32.772064,25.744904 
	C32.903744,26.747086 32.785038,27.468321 32.640282,28.557190 
	C32.843399,29.030146 33.072571,29.135468 33.401657,29.605991 
	C33.432159,30.213993 33.362755,30.456795 32.959988,30.879465 
	C31.910807,31.054890 31.194988,31.050446 30.122301,31.077404 
	C29.459715,31.396667 29.094219,31.539726 28.382004,31.480923 
	C27.750040,31.164106 27.498215,30.856918 27.159306,30.231487 
	C25.174858,28.169167 27.451391,27.059196 27.872269,25.304577 
	C29.509464,25.159594 31.015572,25.311775 32.772064,25.744904 
z"/>
<path fill="#F7EDE1" opacity="1.000000" stroke="none" 
	d="
M25.082735,37.840927 
	C24.779663,38.033688 24.379932,37.954308 24.175873,37.956642 
	C23.228106,37.972740 22.484400,37.986496 21.368263,38.006432 
	C20.995832,38.012608 21.006525,37.988747 21.009823,37.976570 
	C19.512396,36.118866 19.997139,33.994141 20.377834,31.516048 
	C21.056808,30.680637 21.605457,30.493700 22.631329,30.782330 
	C23.472422,31.007341 23.921635,31.007542 24.707737,31.011921 
	C25.412745,31.311825 25.804873,31.571728 26.422421,32.094471 
	C26.906296,33.065449 26.990549,33.774296 26.912300,34.859917 
	C26.664122,36.206463 26.085777,36.964329 25.082735,37.840927 
z"/>
<path fill="#F9EFDA" opacity="1.000000" stroke="none" 
	d="
M20.932117,30.853828 
	C21.001736,33.159786 21.002888,35.138988 21.008581,37.541298 
	C20.257675,37.973980 19.502228,37.983559 18.369122,37.983864 
	C18.053049,36.195343 19.760557,34.504639 18.137590,32.322247 
	C18.261896,31.195629 18.526930,30.389101 18.960411,29.306217 
	C19.355049,29.073690 19.561705,29.162825 19.884636,29.400656 
	C20.253424,29.884697 20.536884,30.223734 20.932117,30.853828 
z"/>
<path fill="#BB5109" opacity="1.000000" stroke="none" 
	d="
M25.692627,35.264786 
	C25.296665,34.400749 25.245874,33.724594 25.263824,32.713181 
	C25.388233,32.148224 25.443901,31.918520 25.804356,31.507725 
	C26.109140,31.326632 26.553194,31.120543 26.774342,31.015625 
	C27.163370,30.801853 27.331251,30.692997 27.747128,30.753183 
	C28.385771,30.997902 28.776419,31.073576 29.466249,31.129028 
	C29.765432,31.108809 29.860582,31.587831 29.976912,31.803112 
	C30.011057,33.081264 29.928873,34.144135 29.771606,35.599998 
	C29.696526,35.992989 29.364794,36.011120 29.198738,36.015518 
	C27.960148,36.222794 26.941675,36.140244 25.692627,35.264786 
z"/>
<path fill="#9BA9A6" opacity="1.000000" stroke="none" 
	d="
M21.334698,31.124020 
	C20.685181,30.853865 20.369778,30.527149 20.037411,29.852242 
	C20.586847,28.569151 20.939487,27.037838 22.261774,27.348604 
	C23.734871,27.694815 22.849903,29.268036 23.056700,30.643881 
	C22.571741,31.027246 22.120275,31.047352 21.334698,31.124020 
z"/>
<path fill="#FCE1CA" opacity="1.000000" stroke="none" 
	d="
M27.882816,30.711292 
	C27.827850,30.976591 27.660576,31.030958 27.244396,30.998016 
	C26.995489,30.910709 26.979038,30.451529 26.976185,30.221699 
	C27.292122,30.078197 27.557846,30.247696 27.882816,30.711292 
z"/>
<path fill="#C2764C" opacity="1.000000" stroke="none" 
	d="
M25.855051,31.207726 
	C26.024899,31.534294 25.940659,31.741959 25.594490,32.163773 
	C25.121136,32.119358 25.029913,31.823687 25.051760,31.253508 
	C25.230068,31.040342 25.415514,31.064581 25.855051,31.207726 
z"/>
<path fill="#8E8840" opacity="1.000000" stroke="none" 
	d="
M13.862247,27.422630 
	C13.369070,27.127848 13.408337,27.087358 13.405190,27.057791 
	C13.765868,27.086445 14.129694,27.144667 15.041975,27.292974 
	C15.590432,27.383062 15.560442,27.575855 15.532137,27.666893 
	C15.121028,27.744427 14.738226,27.730921 13.862247,27.422630 
z"/>
<path fill="#999E8D" opacity="1.000000" stroke="none" 
	d="
M33.014061,31.040600 
	C32.626625,31.059332 32.621899,30.640423 32.664627,30.435360 
	C33.044968,30.009951 33.322361,29.728922 33.773537,29.198605 
	C34.490860,29.261885 34.982868,29.522512 35.733620,29.887480 
	C35.483379,31.227180 34.360096,30.917408 33.014061,31.040600 
z"/>
<path fill="#ECE3C6" opacity="1.000000" stroke="none" 
	d="
M39.115410,38.811653 
	C38.855431,39.032204 38.669594,39.046448 38.218781,39.150303 
	C37.791328,39.185596 37.628853,39.131275 37.236156,38.962719 
	C37.533085,38.590092 38.060234,38.331703 38.895432,38.120220 
	C39.203480,38.167130 39.189552,38.605350 39.115410,38.811653 
z"/>
<path fill="#C7470D" opacity="1.000000" stroke="none" 
	d="
M25.242317,35.359947 
	C26.396044,35.198002 27.444632,35.319096 28.762951,35.730057 
	C28.922024,37.457233 28.081345,38.042385 26.032318,37.965324 
	C25.353851,37.921642 25.052124,37.903088 24.915894,37.968388 
	C24.898834,37.236790 25.018005,36.439888 25.242317,35.359947 
z"/>
<path fill="#966914" opacity="1.000000" stroke="none" 
	d="
M28.789873,39.639450 
	C28.144625,39.772995 27.274996,39.667732 26.194246,39.303749 
	C26.843914,39.163563 27.704704,39.282101 28.789873,39.639450 
z"/>
<path fill="#966914" opacity="1.000000" stroke="none" 
	d="
M25.217236,38.171284 
	C25.353851,37.921642 25.676821,37.994297 25.840706,38.019051 
	C26.004591,38.043804 25.991287,38.532639 25.980469,38.777351 
	C25.797565,39.014885 25.625481,39.007706 25.194851,38.986008 
	C24.984411,38.787960 25.032515,38.604443 25.217236,38.171284 
z"/>
<path fill="#838E82" opacity="1.000000" stroke="none" 
	d="
M33.652466,28.986385 
	C33.744362,29.306398 33.489868,29.611538 32.971367,30.073486 
	C32.657673,30.015133 32.607990,29.799969 32.586266,29.254814 
	C32.844841,28.940388 33.075455,28.955952 33.652466,28.986385 
z"/>
</svg>